<svg width="139" height="42" viewBox="0 0 139 42" xmlns="http://www.w3.org/2000/svg"><title>lmi-hero-logo</title><g fill="#FFF" fill-rule="evenodd"><path d="M137.01 3.494c-.02.01-.042.02-.068.028l-.074.028c-.024.01-.046.023-.066.038-.02.016-.033.035-.036.06 0 .01.002.02.005.03l.01.025c.015.027.03.05.042.07.014.018.027.04.04.063l.307.474.047.07c.015.025.028.05.04.077.012.038.007.068-.017.092-.014.006-.025.01-.035.01-.01 0-.024 0-.04.004-.03.007-.06.007-.093 0-.017-.006-.034-.01-.05-.01-.014 0-.028-.005-.042-.015-.03-.018-.055-.043-.073-.077-.02-.035-.04-.065-.06-.092l-.32-.504c-.028-.04-.053-.082-.077-.125-.023-.04-.056-.076-.097-.103-.02-.014-.044-.02-.074-.023l-.09-.003h-.046c-.027.008-.05.013-.07.017-.022.003-.04.013-.052.03-.017.027-.027.06-.028.102-.002.04-.002.082-.002.126V4.3c0 .037 0 .073.002.11 0 .035-.004.066-.018.093-.007.017-.022.032-.046.044-.023.01-.05.018-.08.02-.028.002-.057 0-.085-.003-.03-.003-.052-.01-.07-.025-.013-.01-.022-.025-.024-.042-.003-.017-.008-.034-.015-.05v-.03c-.003-.018-.004-.04-.002-.065l.002-.074v-1.8c0-.03.007-.055.02-.072.014-.024.036-.04.067-.05.007 0 .013 0 .02-.003.006-.002.013-.003.02-.003h.54c.16 0 .3.005.42.016.118.01.223.05.315.117.044.023.077.05.102.08.05.073.087.156.11.25l.016.093v.046c.007.03.006.07-.002.12-.01.05-.017.085-.024.11-.023.074-.056.135-.1.183-.042.047-.092.09-.15.127zm-.713-.153h.176c.06-.003.114-.01.165-.02.052-.01.098-.024.14-.042.04-.02.07-.046.095-.08.03-.04.05-.086.06-.137.014-.04.02-.083.012-.13-.007-.045-.017-.082-.03-.11-.028-.057-.068-.1-.12-.126-.054-.027-.115-.046-.185-.056-.07-.01-.145-.016-.23-.016h-.246c-.007 0-.014 0-.022.003-.01.002-.017.002-.024.002-.034.01-.058.028-.07.05-.008.012-.012.024-.014.037 0 .014-.004.027-.007.04v.057c-.007.018-.01.038-.008.062l.002.066c0 .055 0 .12-.003.19-.003.075.008.126.032.157.024.034.062.052.115.054h.16z"/><path d="M136.364 5.668c-1.217 0-2.207-.99-2.207-2.207 0-1.216.99-2.206 2.207-2.206 1.217 0 2.207.99 2.207 2.207 0 1.218-.99 2.208-2.206 2.208zm0-4.063c-1.024 0-1.857.832-1.857 1.856 0 1.025.833 1.857 1.857 1.857s1.857-.832 1.857-1.856c0-1.023-.832-1.855-1.856-1.855zM14.95 30.246v-2.184c0-.2-.055-.37-.167-.504-.067-.088-.207-.156-.42-.2-.214-.046-.443-.074-.69-.085-.246-.01-.503-.01-.772 0-.268.01-.492.017-.67.017H6.317c-.47 0-.784-.146-.94-.437-.046-.11-.074-.24-.084-.386-.012-.145-.018-.297-.018-.454v-.336c0-.205-.03-.262-.018-.43.01-.168-.015-.398-.015-.577V8.625c0-.258-.056-.464-.168-.622-.112-.157-.286-.24-.52-.25-.236-.013-.477-.02-.723-.02H.976c-.045.024-.09.03-.134.02-.046-.013-.09-.007-.135.015-.27.067-.448.18-.538.335-.068.113-.107.27-.118.472-.01.202-.017.403-.017.604v21.588c0 .213.045.386.134.52.112.18.285.286.52.32.235.033.51.05.823.05h12.564c.223 0 .39-.045.503-.135.136-.066.248-.19.337-.37.045-.11.06-.245.05-.402-.01-.156-.016-.324-.016-.504M33.163 22.89c0-.067-.002-.13-.006-.188-.025-.866-.14-1.638-.314-2.196l-.016-.07c-.046-.202-.1-.392-.17-.572-.11-.314-.21-.61-.3-.89s-.215-.543-.37-.79c-.157-.247-.31-.48-.454-.706-.146-.223-.308-.447-.488-.67-.18-.248-.398-.477-.654-.69-.258-.213-.51-.41-.756-.588-.427-.298-.89-.558-1.39-.78-.73-.495-2.282-.836-4.08-.836h-.12c-.106 0-.214 0-.323.003l-.052.006c-.18.007-.358.016-.532.03-.123.004-.253.014-.39.03-.008.004-.017.006-.025.008-1.137.125-2.07.392-2.602.736-.245.09-.477.19-.698.3-.806.515-1.49 1.08-2.05 1.696-.56.617-1.042 1.384-1.445 2.302-.112.27-.202.543-.268.823-.067.28-.147.567-.235.857-.045.11-.068.22-.068.32 0 .043-.002.088-.007.133-.015.074-.03.15-.042.23-.026.077-.04.158-.038.24-.053.376-.086.79-.097 1.225v.003c-.004.067-.005.13-.003.188v.11c0 1.17.165 2.206.42 2.83l.12.468c.056.224.14.437.252.64.38.872.85 1.623 1.41 2.25.56.627 1.232 1.175 2.016 1.646.246.135.487.247.723.335.234.092.486.182.754.27.185.082.38.145.584.19.632.224 1.614.368 2.716.368 1.106 0 2.09-.144 2.72-.37h.012c.28-.06.554-.142.823-.255 1.075-.448 1.992-1.008 2.754-1.68.762-.672 1.378-1.545 1.848-2.62.112-.224.2-.465.27-.722.066-.257.144-.51.235-.756l.025-.174c.19-.63.31-1.525.31-2.517v-.114-.05zm-5.04 2.485c-.046.224-.114.448-.202.672-.246.56-.548 1.03-.906 1.412-.36.38-.83.682-1.412.904-.157.07-.332.08-.504.135-.21.066-.286.066-.456.1h-.19c-.25.024-.345.03-.446.017-.1-.01-.2.02-.288-.003-.09-.022-.114-.01-.207-.024-.066-.01-.17-.035-.26-.058-.202-.043-.398-.1-.587-.168-.19-.066-.366-.156-.522-.268-.56-.336-.968-.71-1.225-1.126-.217-.348-.42-.786-.613-1.315-.263-.547-.437-1.506-.437-2.597 0-.925.126-1.756.324-2.32.02-.092.043-.18.07-.27.202-.604.475-1.136.823-1.596.347-.458.8-.81 1.36-1.057.113-.068.24-.12.387-.15.146-.035.297-.074.454-.12.067-.02.155-.032.244-.047.095-.016.07-.004.226-.02.2-.02.403-.005.605-.016.2-.012.39.006.57.05.157.046.303.084.437.118.135.034.27.073.404.117.56.247 1.008.577 1.344.992.336.413.627.91.874 1.494.067.18.118.363.152.554l.015.085c.172.558.28 1.332.28 2.185 0 .882-.114 1.678-.297 2.24l-.016.077zM78.955 7.87c-.112-.09-.274-.136-.487-.136H72.69c-.214 0-.387.057-.522.168-.18.112-.302.26-.37.437l-.2.537c-.113.36-.225.71-.338 1.058-.112.348-.223.7-.336 1.06-.448 1.388-.896 2.77-1.343 4.15-.448 1.376-.895 2.748-1.344 4.114-.178.515-.34 1.024-.487 1.528-.145.505-.308 1.014-.488 1.53-.067.178-.135.38-.202.604-.03.097-.068.178-.12.24-.112.22-.237.34-.37.34-.248 0-.473-.428-.635-1.12-.132-.35-.25-.708-.353-1.073-.134-.47-.29-.93-.47-1.378-.538-1.434-1.036-2.88-1.495-4.336-.46-1.455-.947-2.888-1.462-4.3-.134-.38-.264-.756-.386-1.126-.125-.37-.253-.733-.388-1.092-.068-.2-.134-.408-.2-.62-.07-.214-.18-.376-.338-.488-.2-.157-.487-.236-.856-.236H54.496c-.047.023-.092.03-.137.018-.045-.012-.09-.006-.134.016-.27.067-.45.18-.538.335-.046.09-.08.22-.1.387-.024.168-.035.342-.035.52v21.203c0 .247.01.488.034.722.02.235.1.41.235.522.135.112.303.173.504.184.2.012.425.018.672.018h1.747c.18 0 .358.005.538.017.18.012.347-.005.504-.05.246-.044.414-.146.504-.304.09-.11.136-.255.136-.435V19.764c.02-.247.033-.493.033-.74v-.74c0-.178.01-.446 0-.614-.012-.168.003-.233 0-.397-.005-.22 0-.322 0-.48 0-.155.076-.425.27-.4.08.01.12.027.166.06.045.034.09.074.134.12.135.2.258.458.37.77l.06.135 4.414 12.643.01-.003c.056.17.118.335.186.5.09.2.168.375.236.52.066.146.19.275.37.386.088.068.222.113.402.135.18.022.374.034.588.034.212 0 .425-.005.64-.017.21-.012.396-.017.552-.017h.774c.204.01.31.006.42-.005.114-.01.255-.04.366-.13.11-.09.15-.175.204-.308.052-.123.093-.186.153-.326l.14-.353 4.62-13.434.012-.027c.043-.113.084-.236.15-.354.07-.124.123-.188.2-.33.015-.027.035-.072.068-.116.034-.045.204-.14.27-.116.136.044.16.058.19.24.03.177.024.533.02.696-.002.206.036.377.025.568-.01.19-.016.374-.016.553v.857c0 .28.01.577.033.89v10.92c0 .18.044.327.134.437.09.137.197.215.32.238.123.023.274.055.453.1h2.52c.247 0 .472-.006.672-.017.202-.01.37-.07.505-.183.134-.112.207-.287.218-.522.012-.234.017-.475.017-.72V8.625c0-.37-.124-.622-.37-.756M51.642 15.11c-.012-.258-.095-.442-.25-.555-.136-.112-.3-.173-.49-.185-.19-.01-.408-.017-.654-.017h-1.713c-.202 0-.4.007-.59.017-.19.012-.352.063-.486.152-.09.09-.152.196-.186.318-.02.074-.013.12-.03.218-.062.4-.202.723-.496.758-.164.02-.32-.058-.44-.196-.083-.06-.16-.123-.227-.19-.11-.112-.234-.225-.37-.337-.088-.067-.166-.13-.233-.185-.067-.056-.135-.106-.202-.15-.293-.19-.612-.352-.957-.485-.258-.15-.73-.27-1.32-.337-.307-.04-.63-.06-.972-.056h-.09c-.233 0-.46.007-.674.022-.017 0-.033 0-.048.003-.738.054-1.34.188-1.65.363-.2.07-.392.143-.572.22-.314.134-.617.292-.908.47-.112.068-.224.14-.336.22-.113.078-.223.16-.336.25l-.2.202c-.114.09-.23.19-.354.302-.123.113-.218.225-.285.337-.158.2-.31.397-.454.587-.147.19-.276.398-.387.62-.225.36-.41.74-.555 1.144-.048.136-.097.273-.144.413-.236.546-.417 1.333-.51 2.254-.02.063-.026.127-.018.19v.003c-.023.273-.04.556-.046.847-.003.054-.005.113-.005.175v.197c0 1.563.243 2.938.61 3.738.02.05.04.098.063.146.403.964.9 1.787 1.495 2.47.593.685 1.372 1.215 2.335 1.596.246.113.515.196.806.252.29.056.594.118.908.185.09.022.173.034.25.034.08 0 .153.013.22.034h.27c.11.023.29.034.536.034.247 0 .425-.01.538-.034.112-.02.23-.04.353-.05.12-.012.25-.03.385-.05.27-.068.526-.135.773-.2.246-.07.493-.158.74-.27.245-.113.47-.236.672-.37.2-.135.402-.28.604-.437.062-.05.126-.104.192-.16.05-.055.106-.104.163-.145.063-.057.14-.097.225-.12.145-.05.288-.045.406.023.234.135.27.413.234.825.004.04-.002.137-.008.184-.012.09-.017.174-.017.263 0 .248-.06.456-.07.692-.012.234-.04.452-.085.654-.044.157-.078.302-.1.436-.023.135-.056.27-.1.404-.202.448-.46.84-.774 1.176-.195.21-.42.39-.676.55-.105.072-.236.142-.387.206l-.112.05c-.07.037-.14.058-.203.065-.274.087-.59.154-.93.192-.653.075-.966.042-1.64-.068-.258-.034-.523-.154-.796-.29-.113-.053-.214-.11-.3-.172-.14-.09-.27-.19-.384-.296-.016-.01-.032-.022-.047-.034l-.012-.02c-.14-.138-.26-.284-.356-.432-.026-.03-.05-.06-.07-.086-.18-.246-.314-.443-.403-.588-.09-.146-.313-.264-.672-.353-.112 0-.207-.005-.285-.016-.08-.012-.175-.017-.285-.017H37.38c-.248 0-.51-.007-.79-.016-.28-.013-.533.004-.756.05-.225.044-.4.14-.522.285-.123.144-.15.362-.084.654.022.044.034.1.034.168 0 .067.022.135.067.202.313.918.806 1.652 1.478 2.2.67.548 1.433 1.003 2.284 1.362.202.09.41.16.622.218.212.054.43.106.655.15.033.017.073.028.12.032.527.133 1.298.22 2.17.236l.13.002h.123c.897 0 1.708-.08 2.282-.204.24-.024.48-.068.718-.132.27-.068.527-.135.773-.202s.492-.157.74-.268c.85-.36 1.573-.82 2.166-1.38.594-.56 1.08-1.265 1.462-2.115.112-.247.196-.51.252-.79.055-.28.13-.577.218-.89.023-.18.04-.342.05-.486.012-.147.03-.31.05-.488 0-.18.006-.355.018-.522.01-.168.017-.342.017-.522V15.9c0-.27-.007-.533-.018-.79zm-4.485 8.064c-.023.347-.067.678-.135.99-.068.314-.146.572-.235.774-.224.56-.51 1.04-.857 1.446-.347.402-.8.716-1.36.94-.18.09-.36.146-.538.167l-.018.003c-.156.04-.33.07-.513.09l-.04.01h-.05c-.105.008-.213.012-.323.013-.042.01-.097.01-.164.002l-.06-.006c-.153-.007-.3-.022-.44-.043-.023-.002-.046-.002-.07-.002-.043-.01-.083-.023-.123-.034-.224-.048-.42-.114-.578-.194-.09-.035-.17-.07-.24-.107-.516-.27-.92-.62-1.21-1.06-.292-.436-.538-.944-.74-1.528-.027-.107-.05-.212-.068-.315-.05-.212-.093-.444-.125-.69l-.01-.035v-.03c-.024-.203-.042-.415-.052-.635-.025-.232-.03-.504-.015-.815.016-.33.043-.604.08-.824.024-.176.054-.344.087-.503v-.015c0-.068.023-.156.068-.27.082-.304.182-.56.295-.756.142-.314.3-.61.48-.89.31-.492.76-.862 1.342-1.11.035-.01.07-.02.103-.032.333-.176.84-.29 1.41-.29.387 0 .745.053 1.04.142.5.105.915.277 1.244.517.583.426 1.03 1.03 1.344 1.814.067.135.123.28.168.437l.134.47c.015.06.022.112.022.157.024.114.045.232.062.353.057.25.09.53.102.836.01.335.004.677-.017 1.024zM97.815 21.607c-.063-.476-.156-.91-.263-1.256-.118-.5-.314-1.064-.58-1.65-.074-.187-.16-.37-.258-.55-.02-.032-.04-.063-.062-.094-.284-.53-.593-1-.9-1.384l-.047-.07c-.005 0-.01-.005-.013-.007-.24-.293-.478-.53-.7-.702-.03-.026-.062-.052-.093-.08-.203-.167-.404-.318-.606-.453-.65-.447-1.383-.81-2.2-1.092-.006 0-.012-.003-.018-.005-.565-.23-1.526-.383-2.616-.383h-.064c-.08 0-.16 0-.243.002-.007 0-.013.002-.02.003-.206.005-.407.017-.6.033-.123.004-.252.015-.388.03-.027.008-.053.014-.08.02-.37.05-.696.12-.965.204-.318.056-.63.15-.936.28-2.31.965-3.943 2.61-4.906 4.94-.09.206-.162.42-.22.645-.207.61-.352 1.372-.41 2.217l-.01.062v.057c-.01.166-.016.336-.02.507-.002.037-.002.075 0 .114-.002.04-.002.083-.002.125 0 1.427.242 2.7.62 3.537.063.226.143.448.242.666.358.784.818 1.473 1.378 2.067.56.592 1.198 1.113 1.916 1.562.178.113.375.207.588.285.19.07.938.376 1.267.477.257.09.568.167.92.228l.07.016c.402.086.786.11 1.076.116.197.013.4.02.606.024.048.002.103.002.16.002.023 0 .046.002.068 0 2.268-.14 2.624-.353 3.767-.744.735-.28.87-.403 1.39-.774.627-.448 1.185-1.042 1.68-1.78.178-.247.334-.493.47-.74.133-.246.258-.526.37-.84.044-.112.06-.247.05-.403-.005-.062-.016-.114-.032-.16-.04-.205-.185-.357-.356-.357h-.744c-.066-.01-.137-.01-.212-.005l-.078.005h-1.12c-.06 0-.12-.003-.18-.005-.097-.003-.19 0-.277.005h-.215c-.136 0-.503.124-.73.398-.07.09-.166.21-.242.3-.124.147-.194.236-.326.377-.182.195-.215.205-.495.382-.28.18-.53.325-.756.435l-.013.005c-.245.128-.588.23-.99.296-.056.012-.112.025-.17.036H90.2c-.146.016-.298.028-.454.034-.168.014-.353.014-.56 0-.004 0-.01 0-.013-.002-.686-.03-1.28-.164-1.657-.356-.07-.032-.14-.068-.21-.112-.45-.27-.802-.577-1.06-.925-.257-.347-.504-.77-.683-1.308-.007-.02-.05-.125-.056-.145-.04-.127-.045-.235-.07-.43-.013-.086-.018-.17-.02-.248-.01-.08-.005-.164.02-.25.02-.12.055-.212.104-.258.018-.027.035-.05.052-.066.045-.09.156-.178.335-.268.112-.045.24-.067.387-.067H94.966c.202 0 .43.007.69.017.256.012.514.012.772 0 .257-.01.493-.033.706-.067.212-.034.374-.095.488-.184.11-.068.19-.213.234-.44.033-.167.064-.7.047-.845.022-.377-.02-.482-.088-1.003zm-5-.736c-.112.182-.34.276-.687.288-.35.01-.678.016-.992.016H86.5c-.316 0-.56-.055-.74-.168-.114-.09-.185-.202-.22-.336-.032-.136-.038-.273-.016-.42.023-.146.062-.29.118-.437.055-.145.106-.263.15-.354.472-.918 1.2-1.534 2.186-1.848.11-.044.246-.084.376-.117.158-.04.49-.087.582-.098.096-.012 1.493-.182 2.4.534.48.378.93.79 1.245 1.396.068.156.163.397.286.72.123.327.106.6-.05.825zM118.963.06C107.95.06 99.023 8.988 99.023 20s8.927 19.94 19.94 19.94c11.013 0 19.94-8.928 19.94-19.94S129.976.06 118.963.06zm-6.838 31.478c-.09.156-.29.28-.604.368-.155.046-.323.055-.503.034-.18-.023-.357-.034-.537-.034h-1.983c-.247 0-.475-.01-.69-.033-.212-.022-.385-.09-.52-.202-.11-.11-.18-.28-.2-.503-.023-.224-.035-.46-.035-.705V10.368c0-.312-.005-.682-.016-1.108-.012-.425.04-.728.15-.907.09-.135.236-.246.438-.336.067 0 .13-.005.184-.017.056-.01.106-.017.152-.017h2.89c.246 0 .48.006.705.017.223.012.392.096.504.252.11.157.172.36.184.605.01.247.016.516.016.806v20.092c0 .292.006.617.017.976.01.36-.04.628-.152.808zm19.694-10.115v8.433c0 .426-.007.836-.017 1.227-.013.393-.174.645-.488.756-.134.044-.29.066-.47.066h-2.352c-.27 0-.51-.016-.722-.05-.212-.033-.375-.128-.486-.287-.09-.133-.14-.308-.152-.52-.01-.213-.017-.443-.017-.69v-7.357c0-.83-.033-1.596-.1-2.302-.068-.705-.27-1.304-.605-1.797-.265-.38-.635-.66-1.11-.848-.31-.158-.81-.26-1.374-.26-.66 0-1.23.14-1.515.345-.23.095-.432.205-.603.327-.718.515-1.142 1.266-1.278 2.25-.134.987-.203 2.095-.203 3.326v6.855c0 .202-.033.37-.1.505-.11.247-.29.392-.537.436-.248.044-.55.066-.907.066h-1.68c-.248 0-.494-.01-.74-.033-.247-.022-.426-.1-.537-.236-.158-.2-.23-.49-.218-.874.01-.38.016-.74.016-1.074V16.013c0-.246.005-.47.016-.672.012-.202.073-.37.186-.505.044-.067.117-.117.218-.15.1-.034.208-.062.32-.085h.167c.114-.022.23-.034.353-.034H118.647c.18 0 .354.007.522.018.167.01.318.04.452.083.157.067.264.168.32.302.05.12.05.245.09.4.093.382.196.807.484.843.133.016.264-.04.372-.148.052-.037.19-.184.234-.24.156-.19.463-.463.643-.575.13-.097.236-.167.336-.226.32-.222.803-.434 1.382-.598.024-.01.047-.02.07-.027.185-.06.375-.103.57-.127.086-.017.173-.034.263-.05.746-.126 1.442-.148 1.978-.082.94.053 1.75.24 2.433.563.895.426 1.6 1.053 2.116 1.882.157.246.28.51.37.79.09.28.18.565.27.856.043.18.07.35.082.506.01.156.04.313.084.47 0 .134.012.224.035.268.044.314.066.638.066.975v.973z"/></g></svg>